<svg xmlns="http://www.w3.org/2000/svg" width="1280" height="720" viewBox="0 0 1280 720" role="img" aria-label="Local Model Paper Decisions">
<style>
text{font-family:-apple-system,BlinkMacSystemFont,Segoe UI,Arial,sans-serif;fill:#111827}.title{font-size:44px;font-weight:850}.subtitle{font-size:22px;fill:#667085}.axis{stroke:#344054;stroke-width:3}.grid{stroke:#d0d5dd;stroke-width:1.5}.label{font-size:28px;font-weight:650}.tick{font-size:22px;fill:#475467}.value{font-size:27px;font-weight:850;text-anchor:middle}.legend{font-size:25px;font-weight:650}
</style>
<rect x="0" y="0" width="1280" height="720" fill="#ffffff"/>
<rect x="16" y="16" width="1248" height="688" rx="22" fill="#ffffff" stroke="#d0d5dd" stroke-width="2"/>
<text x="46" y="68" class="title">Local Model Paper Decisions</text>
<text x="48" y="104" class="subtitle">Predicted decisions for all available papers.</text>
<line x1="132" y1="608.0" x2="1210" y2="608.0" class="grid"/>
<text x="114" y="616.0" class="tick" text-anchor="end">0</text>
<line x1="132" y1="488.0" x2="1210" y2="488.0" class="grid"/>
<text x="114" y="496.0" class="tick" text-anchor="end">1,500</text>
<line x1="132" y1="368.0" x2="1210" y2="368.0" class="grid"/>
<text x="114" y="376.0" class="tick" text-anchor="end">3,000</text>
<line x1="132" y1="248.0" x2="1210" y2="248.0" class="grid"/>
<text x="114" y="256.0" class="tick" text-anchor="end">4,500</text>
<line x1="132" y1="128.0" x2="1210" y2="128.0" class="grid"/>
<text x="114" y="136.0" class="tick" text-anchor="end">6,000</text>
<line x1="132" y1="608" x2="1210" y2="608" class="axis"/>
<line x1="132" y1="128" x2="132" y2="608" class="axis"/>
<rect x="211.1" y="563.7" width="201.2" height="44.3" rx="12" fill="#157347"/>
<text x="311.7" y="545.7" class="value">554</text>
<text x="311.7" y="672" class="label" text-anchor="middle">Accept</text>
<rect x="570.4" y="194.9" width="201.2" height="413.1" rx="12" fill="#c77700"/>
<text x="671.0" y="176.9" class="value">5,164</text>
<text x="671.0" y="672" class="label" text-anchor="middle">Modify</text>
<rect x="929.7" y="596.0" width="201.2" height="12.0" rx="12" fill="#b42318"/>
<text x="1030.3" y="578.0" class="value">150</text>
<text x="1030.3" y="672" class="label" text-anchor="middle">Reject</text>
</svg>