<svg xmlns="http://www.w3.org/2000/svg" width="1280" height="720" viewBox="0 0 1280 720" role="img" aria-label="Local Quality Score Distribution">
<style>
text{font-family:-apple-system,BlinkMacSystemFont,Segoe UI,Arial,sans-serif;fill:#111827}.title{font-size:44px;font-weight:850}.subtitle{font-size:22px;fill:#667085}.axis{stroke:#344054;stroke-width:3}.grid{stroke:#d0d5dd;stroke-width:1.5}.label{font-size:28px;font-weight:650}.tick{font-size:22px;fill:#475467}.value{font-size:27px;font-weight:850;text-anchor:middle}.legend{font-size:25px;font-weight:650}
</style>
<rect x="0" y="0" width="1280" height="720" fill="#ffffff"/>
<rect x="16" y="16" width="1248" height="688" rx="22" fill="#ffffff" stroke="#d0d5dd" stroke-width="2"/>
<text x="46" y="68" class="title">Local Quality Score Distribution</text>
<text x="48" y="104" class="subtitle">Higher scores indicate stronger local accept readiness.</text>
<line x1="132" y1="608.0" x2="1210" y2="608.0" class="grid"/>
<text x="114" y="616.0" class="tick" text-anchor="end">0</text>
<line x1="132" y1="488.0" x2="1210" y2="488.0" class="grid"/>
<text x="114" y="496.0" class="tick" text-anchor="end">500</text>
<line x1="132" y1="368.0" x2="1210" y2="368.0" class="grid"/>
<text x="114" y="376.0" class="tick" text-anchor="end">1,000</text>
<line x1="132" y1="248.0" x2="1210" y2="248.0" class="grid"/>
<text x="114" y="256.0" class="tick" text-anchor="end">1,500</text>
<line x1="132" y1="128.0" x2="1210" y2="128.0" class="grid"/>
<text x="114" y="136.0" class="tick" text-anchor="end">2,000</text>
<line x1="132" y1="608" x2="1210" y2="608" class="axis"/>
<line x1="132" y1="128" x2="132" y2="608" class="axis"/>
<rect x="155.7" y="604.4" width="60.4" height="3.6" rx="12" fill="#2477b3"/>
<text x="185.9" y="586.4" class="value">15</text>
<text x="185.9" y="672" class="label" text-anchor="middle">0-9</text>
<rect x="263.5" y="607.3" width="60.4" height="0.7" rx="12" fill="#2477b3"/>
<text x="293.7" y="589.3" class="value">3</text>
<text x="293.7" y="672" class="label" text-anchor="middle">10-19</text>
<rect x="371.3" y="587.4" width="60.4" height="20.6" rx="12" fill="#2477b3"/>
<text x="401.5" y="569.4" class="value">86</text>
<text x="401.5" y="672" class="label" text-anchor="middle">20-29</text>
<rect x="479.1" y="413.1" width="60.4" height="194.9" rx="12" fill="#2477b3"/>
<text x="509.3" y="395.1" class="value">812</text>
<text x="509.3" y="672" class="label" text-anchor="middle">30-39</text>
<rect x="586.9" y="149.6" width="60.4" height="458.4" rx="12" fill="#2477b3"/>
<text x="617.1" y="131.6" class="value">1,910</text>
<text x="617.1" y="672" class="label" text-anchor="middle">40-49</text>
<rect x="694.7" y="203.6" width="60.4" height="404.4" rx="12" fill="#2477b3"/>
<text x="724.9" y="185.6" class="value">1,685</text>
<text x="724.9" y="672" class="label" text-anchor="middle">50-59</text>
<rect x="802.5" y="446.7" width="60.4" height="161.3" rx="12" fill="#2477b3"/>
<text x="832.7" y="428.7" class="value">672</text>
<text x="832.7" y="672" class="label" text-anchor="middle">60-69</text>
<rect x="910.3" y="522.3" width="60.4" height="85.7" rx="12" fill="#2477b3"/>
<text x="940.5" y="504.3" class="value">357</text>
<text x="940.5" y="672" class="label" text-anchor="middle">70-79</text>
<rect x="1018.1" y="561.4" width="60.4" height="46.6" rx="12" fill="#2477b3"/>
<text x="1048.3" y="543.4" class="value">194</text>
<text x="1048.3" y="672" class="label" text-anchor="middle">80-89</text>
<rect x="1125.9" y="575.8" width="60.4" height="32.2" rx="12" fill="#2477b3"/>
<text x="1156.1" y="557.8" class="value">134</text>
<text x="1156.1" y="672" class="label" text-anchor="middle">90-100</text>
</svg>